<svg xmlns="http://www.w3.org/2000/svg" fill="none" viewBox="-0.5 -0.5 14 14" height="14" width="14"><g id="task-list--task-list-work"><path id="Vector" fill="#d7e0ff" d="M10.88192857142857 11.607142857142858a0.9285714285714286 0.9285714285714286 0 0 1 -0.9285714285714286 0.9285714285714286h-8.357142857142858a0.9285714285714286 0.9285714285714286 0 0 1 -0.9285714285714286 -0.9285714285714286v-10.214285714285715a0.9285714285714286 0.9285714285714286 0 0 1 0.9285714285714286 -0.9285714285714286h5.571428571428571l3.7142857142857144 3.7142857142857144v7.428571428571429Z" stroke-width="1"></path><path id="Vector_2" stroke="#4147d5" stroke-linecap="round" stroke-linejoin="round" d="M10.88192857142857 11.607142857142858a0.9285714285714286 0.9285714285714286 0 0 1 -0.9285714285714286 0.9285714285714286h-8.357142857142858a0.9285714285714286 0.9285714285714286 0 0 1 -0.9285714285714286 -0.9285714285714286v-10.214285714285715a0.9285714285714286 0.9285714285714286 0 0 1 0.9285714285714286 -0.9285714285714286h5.187a0.9285714285714286 0.9285714285714286 0 0 1 0.6565 0.2720714285714286l3.1701428571428574 3.1701428571428574a0.9285714285714286 0.9285714285714286 0 0 1 0.2720714285714286 0.6565V11.607142857142858Z" stroke-width="1"></path><path id="Vector_3" stroke="#4147d5" stroke-linecap="round" stroke-linejoin="round" d="m6.292928571428572 5.919642857142858 2.3214285714285716 0" stroke-width="1"></path><path id="Vector_4" stroke="#4147d5" stroke-linecap="round" stroke-linejoin="round" d="m6.292928571428572 9.140857142857143 2.3214285714285716 0" stroke-width="1"></path><path id="Vector_5" stroke="#4147d5" stroke-linecap="round" stroke-linejoin="round" d="m2.7021428571428574 9.087928571428572 0.7781428571428571 0.7781428571428571L4.7775 8.050714285714285" stroke-width="1"></path><path id="Vector_6" stroke="#4147d5" stroke-linecap="round" stroke-linejoin="round" d="m2.7021428571428574 5.809142857142858 0.7781428571428571 0.7781428571428571 1.2972142857142859 -1.815357142857143" stroke-width="1"></path></g></svg>